# Max2Obj Version 4.0 Mar 10th, 2001
#
mtllib ./bush.mtl
g
# object 1_-_Default to come ...
#
v  -0.536836 -4.871798 9.216002
v  9.217150 -4.871798 -0.517195
v  -7.419246 4.871798 2.318891
v  2.334740 4.871798 -7.414306
v  0.409262 -4.871797 -9.343895
v  -9.344723 -4.871797 0.389304
v  7.291674 4.871800 -2.446786
v  -2.462311 4.871800 7.286413
v  -9.215176 -4.871799 -0.410092
v  0.518022 -4.871798 9.343895
v  -2.318065 4.871798 -7.292503
v  7.415133 4.871799 2.461485
v  9.344723 -4.871796 0.536007
v  -0.388478 -4.871797 -9.217979
v  2.447613 4.871801 7.418419
v  -7.285587 4.871800 -2.335568
v  5.770751 -4.871798 7.790615
v  5.770750 -4.871799 -5.988914
v  -3.972848 4.871799 7.790614
v  -3.972849 4.871798 -5.988915
v  -6.698795 -4.871798 -5.988914
v  -6.698791 -4.871797 7.790615
v  3.044804 4.871800 -5.988915
v  3.044807 4.871801 7.790613
v  -7.173147 -4.871799 7.134258
v  6.606382 -4.871798 7.134260
v  -7.173148 4.871798 -2.609341
v  6.606381 4.871799 -2.609340
v  6.606381 -4.871797 -5.335285
v  -7.173149 -4.871798 -5.335284
v  6.606383 4.871802 4.408314
v  -7.173146 4.871800 4.408315
# 32 vertices

vt  0.000000 0.000000 0.000000
vt  1.000000 0.000000 0.000000
vt  0.000000 0.000000 0.000000
vt  1.000000 0.000000 0.000000
vt  0.000000 0.000000 0.000000
vt  1.000000 0.000000 0.000000
vt  0.000000 1.000000 0.000000
vt  1.000000 1.000000 0.000000
vt  0.000000 0.000000 0.000000
vt  1.000000 0.000000 0.000000
vt  0.000000 0.000000 0.000000
vt  1.000000 0.000000 0.000000
vt  0.000000 0.000000 0.000000
vt  1.000000 0.000000 0.000000
vt  0.000000 1.000000 0.000000
vt  1.000000 1.000000 0.000000
vt  0.000000 0.000000 0.000000
vt  1.000000 0.000000 0.000000
vt  0.000000 0.000000 0.000000
vt  1.000000 0.000000 0.000000
vt  0.000000 0.000000 0.000000
vt  1.000000 0.000000 0.000000
vt  0.000000 1.000000 0.000000
vt  1.000000 1.000000 0.000000
vt  0.000000 0.000000 0.000000
vt  1.000000 0.000000 0.000000
vt  0.000000 0.000000 0.000000
vt  1.000000 0.000000 0.000000
vt  0.000000 0.000000 0.000000
vt  1.000000 0.000000 0.000000
vt  0.000000 1.000000 0.000000
vt  1.000000 1.000000 0.000000
vt  0.000000 0.000000 0.000000
vt  1.000000 0.000000 0.000000
vt  0.000000 0.000000 0.000000
vt  1.000000 0.000000 0.000000
vt  0.000000 0.000000 0.000000
vt  1.000000 0.000000 0.000000
vt  0.000000 1.000000 0.000000
vt  1.000000 1.000000 0.000000
vt  0.000000 0.000000 0.000000
vt  1.000000 0.000000 0.000000
vt  0.000000 0.000000 0.000000
vt  1.000000 0.000000 0.000000
vt  0.000000 0.000000 0.000000
vt  1.000000 0.000000 0.000000
vt  0.000000 1.000000 0.000000
vt  1.000000 1.000000 0.000000
vt  0.000000 0.000000 0.000000
vt  1.000000 0.000000 0.000000
vt  0.000000 0.000000 0.000000
vt  1.000000 0.000000 0.000000
vt  0.000000 0.000000 0.000000
vt  1.000000 0.000000 0.000000
vt  0.000000 1.000000 0.000000
vt  1.000000 1.000000 0.000000
vt  0.000000 0.000000 0.000000
vt  1.000000 0.000000 0.000000
vt  0.000000 0.000000 0.000000
vt  1.000000 0.000000 0.000000
vt  0.000000 0.000000 0.000000
vt  1.000000 0.000000 0.000000
vt  0.000000 1.000000 0.000000
vt  1.000000 1.000000 0.000000
# 64 texture vertices

vn  0.499466 0.707107 0.500533
vn  0.499466 0.707107 0.500533
vn  0.499466 0.707107 0.500533
vn  0.499466 0.707107 0.500533
vn  -0.499466 0.707107 -0.500533
vn  -0.499466 0.707107 -0.500533
vn  -0.499466 0.707107 -0.500533
vn  -0.499466 0.707107 -0.500533
vn  -0.500533 0.707107 0.499466
vn  -0.500533 0.707107 0.499466
vn  -0.500533 0.707107 0.499466
vn  -0.500533 0.707107 0.499466
vn  0.500533 0.707107 -0.499466
vn  0.500533 0.707107 -0.499466
vn  0.500533 0.707107 -0.499466
vn  0.500533 0.707107 -0.499466
vn  0.707107 0.707107 -0.000000
vn  0.707107 0.707107 -0.000000
vn  0.707107 0.707107 -0.000000
vn  0.707107 0.707107 -0.000000
vn  -0.707107 0.707107 0.000000
vn  -0.707107 0.707107 0.000000
vn  -0.707107 0.707107 0.000000
vn  -0.707107 0.707107 0.000000
vn  -0.000000 0.707107 0.707107
vn  -0.000000 0.707107 0.707107
vn  -0.000000 0.707107 0.707107
vn  -0.000000 0.707107 0.707107
vn  -0.000000 0.707107 -0.707107
vn  -0.000000 0.707107 -0.707107
vn  -0.000000 0.707107 -0.707107
vn  -0.000000 0.707107 -0.707107
# 32 vertex normals

g 1_-_Default
usemtl 1_-_Default
s 1
f 1/5/1 2/6/2 4/8/4 3/7/3
f 5/13/5 6/14/6 8/16/8 7/15/7
f 9/21/9 10/22/10 12/24/12 11/23/11
f 13/29/13 14/30/14 16/32/16 15/31/15
f 17/37/17 18/38/18 20/40/20 19/39/19
f 21/45/21 22/46/22 24/48/24 23/47/23
f 25/53/25 26/54/26 28/56/28 27/55/27
f 29/61/29 30/62/30 32/64/32 31/63/31
# 8 faces

g
